<?xml version="1.0" encoding="utf-8"?>
<!-- Generator: Adobe Illustrator 16.0.3, SVG Export Plug-In . SVG Version: 6.00 Build 0)  -->
<!DOCTYPE svg PUBLIC "-//W3C//DTD SVG 1.1//EN" "http://www.w3.org/Graphics/SVG/1.1/DTD/svg11.dtd">
<svg version="1.1" id="Layer_1" xmlns="http://www.w3.org/2000/svg" xmlns:xlink="http://www.w3.org/1999/xlink" x="0px" y="0px"
	 width="1972.524px" height="234.408px" viewBox="0 0 1972.524 234.408" enable-background="new 0 0 1972.524 234.408"
	 xml:space="preserve">
<polygon fill="#FFFFFF" points="1972.524,72.115 1963.841,88.499 1962.817,90.434 1905.396,90.434 1877.06,143.764 1934.13,143.764 
	1924.423,162.083 1810.008,162.083 1819.769,143.758 1848.169,90.434 1790.688,90.434 1800.449,72.109 1857.931,72.109 
	1886.338,18.785 1896.099,0.46 1953.199,0.46 1943.462,18.785 1915.126,72.115 "/>
<polygon fill="#FFFFFF" points="1828.751,0.46 1819.015,18.791 1790.654,72.115 1733.555,72.115 1761.997,18.791 1704.11,18.791 
	1675.774,72.109 1666.044,90.434 1637.708,143.758 1627.972,162.083 1570.656,162.083 1580.418,143.758 1608.818,90.434 
	1618.58,72.109 1656.741,0.46 "/>
<path fill="#FFFFFF" d="M942.244,0.461L904.082,72.11l-9.761,18.325l-28.401,53.324l-9.761,18.325h171.891l9.708-18.319h-56.922
	l-57.625-0.006l28.335-53.324h114.898l38.072-71.649l9.737-18.325H942.244z M1019.056,72.116l-57.778-0.006l28.335-53.324h57.893
	L1019.056,72.116z"/>
<path fill="#FFFFFF" d="M1475.4,0.461l-38.162,71.649l-9.762,18.325l-28.4,53.324l-9.762,18.325h171.891l9.708-18.319h-56.922
	l-57.625-0.006l28.336-53.324H1599.6l38.073-71.649l9.736-18.325H1475.4z M1552.213,72.116l-57.779-0.006l28.335-53.324h57.894
	L1552.213,72.116z"/>
<polygon fill="#FFFFFF" points="1295.743,0.461 1286.006,18.786 1171.103,18.786 1142.767,72.11 1133.036,90.436 1104.7,143.759 
	1162.324,143.765 1219.246,143.765 1209.539,162.084 1037.648,162.084 1047.409,143.759 1075.811,90.436 1085.571,72.11 
	1123.733,0.461 "/>
<polygon fill="#FFFFFF" points="91.696,162.308 0,162.308 76.15,18.584 2.742,18.584 12.453,0.263 85.861,0.263 85.861,0.235 
	144.012,0.235 144.012,0.263 136.706,14.076 67.89,143.988 101.4,143.988 "/>
<polygon fill="#FFFFFF" points="672.669,71.874 672.669,71.907 665.56,85.28 596.513,215.632 596.57,215.632 586.864,233.948 
	528.624,233.948 604.808,90.223 560.69,90.223 522.614,162.069 464.435,162.069 502.539,90.194 512.243,71.874 550.319,0 608.475,0 
	570.4,71.907 614.513,71.907 614.513,71.874 "/>
<polygon fill="#FFFFFF" points="894.078,72.334 894.078,72.368 886.969,85.741 817.922,216.093 817.979,216.093 808.273,234.408 
	750.033,234.408 826.217,90.684 782.099,90.684 744.023,162.529 685.844,162.529 723.948,90.655 733.652,72.334 771.728,0.461 
	829.884,0.461 791.809,72.368 835.922,72.368 835.922,72.334 "/>
<polygon fill="#FFFFFF" points="1437.923,45.317 1334.52,72.366 1369.066,72.366 1369.066,72.336 1427.227,72.336 1427.227,72.366 
	1420.116,85.742 1351.069,216.093 1351.123,216.093 1341.421,234.407 1283.178,234.407 1359.365,90.685 1315.241,90.685 
	1277.169,162.531 1218.99,162.531 1257.093,90.655 1266.801,72.336 1304.873,0.461 1363.027,0.461 1335.228,52.97 1383.335,40.386 
	1405.383,0.461 1462.488,0.461 "/>
<path fill="#FFFFFF" d="M187.33,0.461l-9.713,18.325h114.975l-28.449,53.331l-57.779-0.006h-57.196l-9.761,18.325l-28.401,53.324
	l-9.761,18.325h172.218l38.073-71.649l1.024-1.936l37.042-69.714l9.737-18.325H187.33z M225.92,143.765l-57.624-0.006l28.335-53.324
	h57.738L225.92,143.765z"/>
<polygon fill="#FFFFFF" points="378.42,90.434 350.084,143.758 407.709,143.765 464.636,143.765 454.929,162.083 283.033,162.083 
	292.793,143.758 321.195,90.434 330.956,72.109 369.118,0.46 541.127,0.46 531.39,18.785 416.487,18.785 388.151,72.109 "/>
</svg>
