<?xml version="1.0" encoding="utf-8"?>
<!-- Generator: Adobe Illustrator 16.0.3, SVG Export Plug-In . SVG Version: 6.00 Build 0)  -->
<!DOCTYPE svg PUBLIC "-//W3C//DTD SVG 1.1//EN" "http://www.w3.org/Graphics/SVG/1.1/DTD/svg11.dtd">
<svg version="1.1"
	 id="svg3070" xmlns:dc="http://purl.org/dc/elements/1.1/" xmlns:cc="http://creativecommons.org/ns#" xmlns:rdf="http://www.w3.org/1999/02/22-rdf-syntax-ns#" xmlns:svg="http://www.w3.org/2000/svg" xmlns:sodipodi="http://sodipodi.sourceforge.net/DTD/sodipodi-0.dtd" xmlns:inkscape="http://www.inkscape.org/namespaces/inkscape" sodipodi:docname="New document 4" inkscape:version="0.48.0 r9654"
	 xmlns="http://www.w3.org/2000/svg" xmlns:xlink="http://www.w3.org/1999/xlink" x="0px" y="0px" width="75.76px" height="76.25px"
	 viewBox="336.73 -177.885 75.76 76.25" enable-background="new 336.73 -177.885 75.76 76.25" xml:space="preserve">
<g id="g3019_1_" transform="matrix(1.018827,0,0,-1.018827,170.5996,498.03288)">
	<path fill="#FFFFFF" d="M202.979,629.674h0.068v0.098C203.019,629.742,202.999,629.703,202.979,629.674z M202.979,629.674h0.068
		v0.098C203.019,629.742,202.999,629.703,202.979,629.674z M202.979,629.674h0.068v0.098
		C203.019,629.742,202.999,629.703,202.979,629.674z M202.979,629.674h0.068v0.098C203.019,629.742,202.999,629.703,202.979,629.674
		z M202.979,629.674h0.068v0.098C203.019,629.742,202.999,629.703,202.979,629.674z M202.979,629.674h0.068v0.098
		C203.019,629.742,202.999,629.703,202.979,629.674z M202.979,629.674h0.068v0.098C203.019,629.742,202.999,629.703,202.979,629.674
		z M202.979,629.674h0.068v0.098C203.019,629.742,202.999,629.703,202.979,629.674z M231.934,663.428h-63.377
		c-3.033,0-5.496-2.404-5.496-5.369v-64.113c0-2.964,2.463-5.359,5.496-5.359h63.377c3.033,0,5.487,2.395,5.487,5.359v64.113
		C237.421,661.023,234.967,663.428,231.934,663.428z M185.597,600.778h-11.229v33.793h11.229V600.778z M179.982,639.185h-0.068
		c-3.77,0-6.213,2.591-6.213,5.84c0,3.318,2.512,5.84,6.36,5.84c3.838,0,6.203-2.522,6.282-5.84
		C186.342,641.776,183.898,639.185,179.982,639.185z M226.104,600.778h-11.229v18.08c0,4.544-1.629,7.636-5.693,7.636
		c-3.102,0-4.956-2.081-5.762-4.102c-0.294-0.727-0.373-1.728-0.373-2.739v-18.875h-11.228c0,0,0.147,30.623,0,33.793h11.228v-4.799
		c1.483,2.306,4.152,5.594,10.12,5.594c7.39,0,12.936-4.829,12.936-15.214V600.778z M203.047,629.674v0.098
		c-0.029-0.03-0.049-0.069-0.068-0.098H203.047z M202.979,629.674h0.068v0.098C203.019,629.742,202.999,629.703,202.979,629.674z
		 M202.979,629.674h0.068v0.098C203.019,629.742,202.999,629.703,202.979,629.674z M202.979,629.674h0.068v0.098
		C203.019,629.742,202.999,629.703,202.979,629.674z M202.979,629.674h0.068v0.098C203.019,629.742,202.999,629.703,202.979,629.674
		z M202.979,629.674h0.068v0.098C203.019,629.742,202.999,629.703,202.979,629.674z M202.979,629.674h0.068v0.098
		C203.019,629.742,202.999,629.703,202.979,629.674z"/>
	<path fill="#FFFFFF" d="M203.047,629.772v-0.098h-0.068C202.999,629.703,203.019,629.742,203.047,629.772z"/>
</g>
</svg>
