<?xml version="1.0" encoding="utf-8"?>
<!-- Generator: Adobe Illustrator 16.0.3, SVG Export Plug-In . SVG Version: 6.00 Build 0)  -->
<!DOCTYPE svg PUBLIC "-//W3C//DTD SVG 1.1//EN" "http://www.w3.org/Graphics/SVG/1.1/DTD/svg11.dtd">
<svg version="1.1" id="Layer_1" xmlns="http://www.w3.org/2000/svg" xmlns:xlink="http://www.w3.org/1999/xlink" x="0px" y="0px"
	 width="249.25px" height="279.793px" viewBox="0 0 249.25 279.793" enable-background="new 0 0 249.25 279.793"
	 xml:space="preserve">
<g>
	<polygon fill="#2B2A2F" points="83.894,148.281 0,148.281 69.672,16.788 2.509,16.788 11.393,0.025 78.557,0.025 78.557,0 
		131.76,0 131.76,0.025 125.075,12.663 62.113,131.52 92.773,131.52 	"/>
	<polygon fill="#2B2A2F" points="249.25,131.509 249.25,131.54 242.747,143.775 179.575,263.037 179.625,263.037 170.747,279.793 
		117.46,279.793 187.163,148.298 146.797,148.298 111.962,214.03 58.732,214.03 93.594,148.271 102.474,131.509 137.31,65.753 
		190.519,65.753 155.683,131.54 196.042,131.54 196.042,131.509 	"/>
</g>
</svg>
